<svg width="92" height="32" viewBox="0 0 92 32" fill="none" xmlns="http://www.w3.org/2000/svg">
<g id="GE_logo_horizontal_fiix">
<path id="Vector" d="M49.1034 17.0459C46.3947 17.0459 44.1934 19.2782 44.1934 22.0216C44.1934 24.7298 46.4185 26.9326 49.1538 26.9326C50.1299 26.9326 51.0527 26.6448 51.821 26.0985C52.6221 25.5581 53.2807 24.7386 53.7257 23.7311C53.7376 23.7076 53.7346 23.6782 53.7198 23.6547C53.705 23.6312 53.6783 23.6195 53.6515 23.6195H50.8302C50.8064 23.6195 50.7827 23.6312 50.7678 23.6488C50.3702 24.1423 49.946 24.4742 49.1538 24.4742C48.0977 24.4742 47.2789 23.8486 47.0919 22.9087H53.9008C53.9393 22.9087 53.975 22.8792 53.9808 22.8411L53.9957 22.7559C54.0254 22.5767 54.0491 22.424 54.0491 22.1039C54.0491 20.7292 53.5507 19.4545 52.6458 18.5175C51.732 17.5687 50.4741 17.0459 49.1034 17.0459ZM47.1305 20.9054C47.4242 19.801 48.5101 19.5044 49.1212 19.5044C49.7324 19.5044 50.8182 19.804 51.112 20.9054H47.1305Z" fill="#C8102E"/>
<path id="Vector_2" d="M64.7565 17.3572H62.0003C61.9557 17.3572 61.9202 17.3925 61.9202 17.4366V18.1914C61.6146 17.7831 60.8432 17.043 59.2797 17.043C58.0247 17.043 56.8558 17.5158 55.9865 18.3765C55.0579 19.2958 54.5684 20.5441 54.5684 21.9863C54.5684 23.3258 55.0075 24.5564 55.8085 25.4582C56.6719 26.4304 57.8734 26.9444 59.2797 26.9444C60.6445 26.9444 61.5137 26.3834 61.9202 25.7989V26.5537C61.9202 26.5978 61.9557 26.633 62.0003 26.633H64.7565C64.8009 26.633 64.8365 26.5978 64.8365 26.5537V17.4366C64.8365 17.3925 64.8009 17.3572 64.7565 17.3572ZM61.9202 21.9893C61.9202 22.8939 61.3268 24.2422 59.6951 24.2422C58.0247 24.2422 57.4848 22.7471 57.4848 22.0216C57.4848 21.1433 58.0811 19.7511 59.6773 19.7511C61.1488 19.7511 61.9202 20.8761 61.9202 21.9893Z" fill="#C8102E"/>
<path id="Vector_3" d="M75.4785 17.3572H72.7223C72.6777 17.3572 72.6422 17.3925 72.6422 17.4365V18.0857C72.1378 17.4424 71.224 17.0635 70.15 17.0635C68.9069 17.0635 67.7439 17.5275 66.8746 18.3735C65.9252 19.2958 65.4238 20.5705 65.4238 22.0568C65.4238 23.455 65.9252 24.7179 66.8302 25.6109C67.6994 26.4656 68.8802 26.9356 70.15 26.9356C71.6216 26.9356 72.3484 26.1748 72.6244 25.7842V25.837C72.6244 28.0047 71.1143 28.2397 70.4645 28.2397C70.0314 28.2397 69.257 28.1281 68.9277 27.3849C68.9158 27.3556 68.8861 27.338 68.8535 27.338H65.6671C65.6434 27.338 65.6227 27.3468 65.6078 27.3644C65.593 27.382 65.5841 27.4055 65.59 27.429C65.6998 28.2192 66.1359 28.9975 66.7827 29.5674C67.64 30.3222 68.812 30.7041 70.2687 30.7041C71.3427 30.7041 72.3633 30.4779 73.2206 30.052C73.992 29.6702 74.624 29.1238 75.0008 28.5128C75.4666 27.7081 75.5585 26.7857 75.5585 25.4669V17.4483C75.5615 17.3925 75.5229 17.3572 75.4785 17.3572ZM72.6422 22.0392C72.6422 23.3286 71.7462 24.2274 70.4645 24.2274C69.0819 24.2274 68.3373 23.0584 68.3373 21.9569C68.3373 20.7292 69.2778 19.7686 70.4823 19.7686C71.7551 19.7686 72.6422 20.7027 72.6422 22.0392Z" fill="#C8102E"/>
<path id="Vector_4" d="M79.2819 13.1807H76.5254C76.4809 13.1807 76.4453 13.2159 76.4453 13.2599V26.5569C76.4453 26.601 76.4809 26.6362 76.5254 26.6362H79.2819C79.326 26.6362 79.3615 26.601 79.3615 26.5569V13.2599C79.3615 13.2159 79.326 13.1807 79.2819 13.1807Z" fill="#C8102E"/>
<path id="Vector_5" d="M88.4435 18.5175C87.5271 17.5687 86.2688 17.0459 84.9014 17.0459C82.1923 17.0459 79.9912 19.2782 79.9912 22.0216C79.9912 24.7298 82.2162 26.9326 84.9517 26.9326C85.9277 26.9326 86.8504 26.6448 87.6183 26.0985C88.4196 25.5581 89.0785 24.7386 89.5232 23.7311C89.5355 23.7076 89.5325 23.6782 89.5178 23.6547C89.5023 23.6312 89.476 23.6195 89.4489 23.6195H86.6276C86.6036 23.6195 86.5804 23.6312 86.5657 23.6488C86.1682 24.1423 85.7436 24.4742 84.9517 24.4742C83.8953 24.4742 83.0762 23.8486 82.8899 22.9087H89.6987C89.7366 22.9087 89.7722 22.8792 89.7784 22.8411L89.79 22.7588C89.8201 22.5797 89.8441 22.4269 89.8441 22.1068C89.8464 20.7292 89.3484 19.4545 88.4435 18.5175ZM86.9068 20.9054H82.9277C83.2216 19.801 84.3075 19.5044 84.9192 19.5044C85.5302 19.5044 86.616 19.804 86.9068 20.9054Z" fill="#C8102E"/>
<path id="Vector_6" d="M10.3322 25.461V17.4335C10.3322 17.3924 10.2995 17.3602 10.258 17.3602H7.51371C7.47217 17.3602 7.43953 17.3924 7.43953 17.4335V18.1003C6.94111 17.4483 6.02734 17.0635 4.95335 17.0635C3.71618 17.0635 2.55912 17.5275 1.69578 18.3735C0.752332 19.2958 0.253906 20.5705 0.253906 22.0597C0.253906 23.4579 0.752332 24.7209 1.65425 25.6138C2.51759 26.4685 3.69244 26.9385 4.95631 26.9385C6.43972 26.9385 7.16066 26.1572 7.42767 25.7724V25.8458C7.42767 28.0224 5.92052 28.2573 5.2708 28.2573C4.83764 28.2573 4.0633 28.1457 3.73695 27.3967C3.72508 27.3703 3.69838 27.3526 3.66871 27.3526H0.491252C0.470484 27.3526 0.449716 27.3615 0.434883 27.3791C0.420048 27.3938 0.414115 27.4173 0.417082 27.4378C0.526853 28.228 0.960011 29.0063 1.60084 29.5732C2.45232 30.3281 3.61828 30.7099 5.06608 30.7099C6.13414 30.7099 7.14879 30.4838 8.0032 30.055C8.76869 29.6731 9.39761 29.1268 9.7744 28.5158C10.2402 27.7051 10.3322 26.7828 10.3322 25.461ZM7.43953 22.0392C7.43953 23.3316 6.54652 24.2362 5.26783 24.2362C3.88826 24.2362 3.14359 23.0614 3.14359 21.9569C3.14359 20.7262 4.08407 19.7598 5.28266 19.7598C6.55245 19.7598 7.43953 20.6969 7.43953 22.0392Z" fill="#C8102E"/>
<path id="Vector_7" d="M11.6079 16.535H14.3521C14.3937 16.535 14.4263 16.5027 14.4263 16.4617V14.3879C14.4263 14.3468 14.3937 14.3145 14.3521 14.3145H11.6079C11.5663 14.3145 11.5337 14.3468 11.5337 14.3879V16.4617C11.5337 16.5027 11.5663 16.535 11.6079 16.535Z" fill="#C8102E"/>
<path id="Vector_8" d="M11.6079 26.6391H14.3521C14.3937 26.6391 14.4263 26.6068 14.4263 26.5656V17.4337C14.4263 17.3926 14.3937 17.3604 14.3521 17.3604H11.6079C11.5663 17.3604 11.5337 17.3926 11.5337 17.4337V26.5656C11.5337 26.6068 11.5663 26.6391 11.6079 26.6391Z" fill="#C8102E"/>
<path id="Vector_9" d="M19.915 26.9503C21.2857 26.9503 22.152 26.3805 22.5495 25.7901V26.5655C22.5495 26.6066 22.5822 26.639 22.6238 26.639H25.3651C25.4066 26.639 25.4393 26.6066 25.4393 26.5655V17.4336C25.4393 17.3925 25.4066 17.3602 25.3651 17.3602H22.6238C22.5822 17.3602 22.5495 17.3925 22.5495 17.4336V18.2091C22.2529 17.8038 21.4904 17.0488 19.915 17.0488C18.666 17.0488 17.5031 17.5218 16.6397 18.3823C15.717 19.3017 15.2305 20.5501 15.2305 21.9922C15.2305 23.3316 15.6695 24.5652 16.4646 25.467C17.322 26.4363 18.5177 26.9503 19.915 26.9503ZM18.1231 22.0245C18.1231 21.1434 18.7164 19.7453 20.3126 19.7453C21.7812 19.7453 22.5526 20.8761 22.5526 21.9922C22.5526 22.9028 21.9592 24.2539 20.3304 24.2539C18.6631 24.2539 18.1231 22.75 18.1231 22.0245Z" fill="#C8102E"/>
<path id="Vector_10" d="M35.2331 26.5655V20.8555C35.2331 19.0226 34.6546 18.2883 34.1502 17.8536C33.6073 17.3866 32.6015 17.0459 31.756 17.0459C30.2341 17.0459 29.6021 17.7655 29.3024 18.2031V17.4307C29.3024 17.3895 29.2698 17.3572 29.2283 17.3572H26.6679C26.6264 17.3572 26.5938 17.3895 26.5938 17.4307V26.5626C26.5938 26.6037 26.6264 26.636 26.6679 26.636H29.4093C29.4508 26.636 29.4834 26.6037 29.4834 26.5626V21.5957C29.4834 21.0464 29.4834 19.7599 30.9788 19.7599C32.3435 19.7599 32.3435 20.9436 32.3435 21.5781V26.5626C32.3435 26.6037 32.3761 26.636 32.4176 26.636H35.1619C35.2005 26.6389 35.2331 26.6066 35.2331 26.5655Z" fill="#C8102E"/>
<path id="Vector_11" d="M35.5976 19.5809H37.084V26.5657C37.084 26.6069 37.1166 26.6392 37.1581 26.6392H39.8995C39.9411 26.6392 39.9736 26.6069 39.9736 26.5657V19.5809H41.6322C41.6737 19.5809 41.7063 19.5487 41.7063 19.5076V17.4338C41.7063 17.3927 41.6737 17.3604 41.6322 17.3604H39.9736V14.3879C39.9736 14.3468 39.9411 14.3145 39.8995 14.3145H37.1581C37.1166 14.3145 37.084 14.3468 37.084 14.3879V17.3575H35.5976C35.5561 17.3575 35.5234 17.3898 35.5234 17.4309V19.5046C35.5234 19.5457 35.5561 19.5809 35.5976 19.5809Z" fill="#C8102E"/>
<path id="Vector_12" d="M39.0662 9.668H21.8349C21.7281 9.668 21.6421 9.58281 21.6421 9.4771C21.6421 9.37131 21.7281 9.28613 21.8349 9.28613H39.0633C39.1701 9.28613 39.2561 9.37131 39.2561 9.4771C39.2591 9.58281 39.173 9.668 39.0662 9.668Z" fill="#77787B"/>
<path id="Vector_13" d="M70.7663 9.668H53.538C53.4312 9.668 53.3452 9.58281 53.3452 9.4771C53.3452 9.37131 53.4312 9.28613 53.538 9.28613H70.7663C70.8732 9.28613 70.9592 9.37131 70.9592 9.4771C70.9592 9.58281 70.8732 9.668 70.7663 9.668Z" fill="#77787B"/>
<path id="Vector_14" d="M46.5098 6.82403C47.1803 8.18693 47.3494 9.75837 47.0141 11.5089L53.7666 0.0683594C53.7666 0.0683594 47.6164 2.04806 46.5098 6.82403Z" fill="#B5CC2D"/>
<path id="Vector_15" d="M38.6208 2.55664C38.6208 2.55664 38.4784 11.9088 46.4235 11.4947L38.6208 2.55664Z" fill="#B5CC2D"/>
<path id="Vector_16" d="M38.6211 2.55664C38.6211 2.55664 47.9873 3.76972 46.4238 11.4947L38.6211 2.55664Z" fill="#79AD36"/>
<path id="Vector_17" d="M53.7667 0.0683594C53.7667 0.0683594 55.8612 10.3488 47.0142 11.506L53.7667 0.0683594Z" fill="#79AD36"/>
<path id="Vector_18" d="M91.1067 22.4066C91.1067 22.6886 90.8754 22.9147 90.597 22.9147C90.3093 22.9147 90.0835 22.6857 90.0835 22.4066C90.0835 22.1305 90.3093 21.8984 90.597 21.8984C90.8785 21.8984 91.1067 22.1276 91.1067 22.4066ZM90.1871 22.4066C90.1871 22.6298 90.365 22.8149 90.5939 22.8149C90.819 22.8149 91 22.6328 91 22.4066C91 22.1863 90.8252 21.9983 90.5939 21.9983C90.3627 21.9983 90.1871 22.1863 90.1871 22.4066ZM90.6202 22.1217C90.6558 22.1217 90.8283 22.1217 90.8283 22.2803C90.8283 22.345 90.7981 22.4037 90.7184 22.4213V22.4242C90.7981 22.4478 90.8136 22.4947 90.8167 22.5682C90.8221 22.6651 90.8221 22.6798 90.8344 22.7033H90.7331C90.7215 22.6857 90.7184 22.668 90.7153 22.5946C90.7123 22.5035 90.6914 22.4771 90.5908 22.4683H90.4725V22.7003H90.3712V22.1187H90.6202V22.1217ZM90.4748 22.3772H90.597C90.638 22.3772 90.7269 22.3772 90.7269 22.2832C90.7215 22.2216 90.6589 22.2157 90.6086 22.2157H90.4748V22.3772Z" fill="#C8102E"/>
</g>
</svg>
